<?xml version="1.0" encoding="utf-8"?>
<!-- Generator: Adobe Illustrator 16.0.0, SVG Export Plug-In . SVG Version: 6.00 Build 0)  -->
<!DOCTYPE svg PUBLIC "-//W3C//DTD SVG 1.1//EN" "http://www.w3.org/Graphics/SVG/1.1/DTD/svg11.dtd">
<svg version="1.1" id="Layer_1" xmlns="http://www.w3.org/2000/svg" xmlns:xlink="http://www.w3.org/1999/xlink" x="0px" y="0px"
	 width="2048px" height="2048px" viewBox="0 0 2048 2048" enable-background="new 0 0 2048 2048" xml:space="preserve">
<g>
	<g>
		<g>
			<g>
				
					<linearGradient id="SVGID_1_" gradientUnits="userSpaceOnUse" x1="-24.8628" y1="997.0449" x2="2148.4028" y2="997.0449" gradientTransform="matrix(0.6396 -0.7687 -0.7687 -0.6396 1114.7046 2507.6484)">
					<stop  offset="0.0161" style="stop-color:#2E3192"/>
					<stop  offset="0.7849" style="stop-color:#00C2DF"/>
					<stop  offset="0.8179" style="stop-color:#0CCADF"/>
					<stop  offset="0.9377" style="stop-color:#34E6DF"/>
					<stop  offset="1" style="stop-color:#43F0DF"/>
				</linearGradient>
				<path fill="url(#SVGID_1_)" d="M841.989,1168.572c-189.422,25.479-357.431,64.16-427.25,153.674
					c-103.32,132.658-85.343,318.863,39.865,423.048c126.042,104.879,316.418,92.347,423.707-36.593l2.826-3.395
					c70.603-84.851,78.155-261.9,70.36-450.459c58.699,25.092,125.755,27.813,186.812-4.009
					c8.896,227.826-5.252,440.488-115.246,572.68c-2.004,2.407-4.039,4.715-6.084,7.025
					c-178.602,203.565-479.315,229.299-684.601,58.481c-203.98-169.729-233.514-469.898-67.252-683.372
					c107.83-139.08,312.296-192.244,536.164-223.698c46.017,9.271,71.753,54.739,78.785,85.838
					C887.353,1100.179,875.588,1143.579,841.989,1168.572z"/>
				
					<linearGradient id="SVGID_2_" gradientUnits="userSpaceOnUse" x1="-61.7983" y1="997.2031" x2="2145.5234" y2="997.2031" gradientTransform="matrix(0.6396 -0.7687 -0.7687 -0.6396 1114.7046 2507.6484)">
					<stop  offset="0.0161" style="stop-color:#2E3192"/>
					<stop  offset="0.7849" style="stop-color:#00C2DF"/>
					<stop  offset="0.8179" style="stop-color:#0CCADF"/>
					<stop  offset="0.9377" style="stop-color:#34E6DF"/>
					<stop  offset="1" style="stop-color:#43F0DF"/>
				</linearGradient>
				<path fill="url(#SVGID_2_)" d="M1787.534,904.498c-106.848,135.167-305.761,184.456-533.381,214.888
					C1217,1125,1184,1087,1176,1032.898c-6.874-46.489,27-95.898,59.644-99.8c179.064-23.925,337.472-59.408,404.075-139.451
					l2.795-3.357c105.494-126.783,82.391-320.599-42.307-424.36c-124.077-103.243-310.563-86.935-422.774,38.566
					c-1.066,1.144-1.774,2.713-2.831,3.985c-61.741,74.337-68.023,239.513-60.485,417.088
					c-59.511-26.423-128.055-29.722-190.222,2.854c-9.411-221.675,2.852-418.619,104.902-541.264
					c2.472-2.969,5.043-5.919,7.585-8.829c180.313-201.604,480.241-227.393,682.77-58.869
					C1921.717,388.014,1952.393,695.297,1787.534,904.498z"/>
			</g>
			
				<linearGradient id="SVGID_3_" gradientUnits="userSpaceOnUse" x1="829.9263" y1="1014.9209" x2="1891.0364" y2="1014.9209" gradientTransform="matrix(0.6396 -0.7687 -0.7687 -0.6396 1114.7046 2507.6484)">
				<stop  offset="0.0968" style="stop-color:#177BB9"/>
				<stop  offset="0.1036" style="stop-color:#167EBB"/>
				<stop  offset="0.1303" style="stop-color:#1485BF"/>
				<stop  offset="0.2043" style="stop-color:#1387C0"/>
				<stop  offset="0.5094" style="stop-color:#23AACA"/>
				<stop  offset="0.7097" style="stop-color:#2FC4D2"/>
				<stop  offset="0.9462" style="stop-color:#43F0DF"/>
			</linearGradient>
			<polygon fill="url(#SVGID_3_)" points="1114.116,825.57 1139.044,1271.674 952.849,1293.308 921.97,772.49 1112.685,786.444 			
				"/>
		</g>
		<g>
			
				<linearGradient id="SVGID_4_" gradientUnits="userSpaceOnUse" x1="472.0493" y1="815.9106" x2="472.0493" y2="1164.355" gradientTransform="matrix(0.6396 -0.7687 -0.7687 -0.6396 1114.7046 2507.6484)">
				<stop  offset="0" style="stop-color:#3D0A42"/>
				<stop  offset="0" style="stop-color:#A0114F"/>
				<stop  offset="0.2537" style="stop-color:#BC1254"/>
				<stop  offset="0.5484" style="stop-color:#E2145A"/>
				<stop  offset="1" style="stop-color:#FF155F"/>
			</linearGradient>
			<path fill="url(#SVGID_4_)" d="M562.491,1396.249l223.213,185.732c12.338,10.268,13.989,28.631,3.751,40.934
				c-10.237,12.303-28.597,14.021-40.936,3.755l-223.212-185.732c-12.321-10.252-13.935-28.592-3.698-40.896
				C531.848,1387.74,550.172,1385.997,562.491,1396.249z"/>
			
				<linearGradient id="SVGID_5_" gradientUnits="userSpaceOnUse" x1="646.2271" y1="583.6411" x2="646.227" y2="1396.6216" gradientTransform="matrix(0.6396 -0.7687 -0.7687 -0.6396 1114.7046 2507.6484)">
				<stop  offset="0" style="stop-color:#3D0A42"/>
				<stop  offset="0" style="stop-color:#4E0B44"/>
				<stop  offset="0" style="stop-color:#7A0E4A"/>
				<stop  offset="0" style="stop-color:#A0114F"/>
				<stop  offset="0.2715" style="stop-color:#B91253"/>
				<stop  offset="0.5484" style="stop-color:#CE1357"/>
				<stop  offset="0.6414" style="stop-color:#DB1459"/>
				<stop  offset="0.8664" style="stop-color:#F5155D"/>
				<stop  offset="1" style="stop-color:#FF155F"/>
			</linearGradient>
			<path fill="url(#SVGID_5_)" d="M495.312,1113.818l580.349,482.904c12.3,10.235,14.013,28.528,3.776,40.833
				c-10.297,12.374-28.6,14.017-40.901,3.781l-580.348-482.902c-12.303-10.237-13.978-28.504-3.682-40.878
				C464.744,1105.253,483.009,1103.581,495.312,1113.818z"/>
			
				<linearGradient id="SVGID_6_" gradientUnits="userSpaceOnUse" x1="820.4517" y1="351.3755" x2="820.4516" y2="1628.8892" gradientTransform="matrix(0.6396 -0.7687 -0.7687 -0.6396 1114.7046 2507.6484)">
				<stop  offset="0" style="stop-color:#3D0A42"/>
				<stop  offset="0" style="stop-color:#4E0B44"/>
				<stop  offset="0" style="stop-color:#7A0E4A"/>
				<stop  offset="0" style="stop-color:#A0114F"/>
				<stop  offset="0.2582" style="stop-color:#B91253"/>
				<stop  offset="0.5215" style="stop-color:#CE1357"/>
				<stop  offset="0.6201" style="stop-color:#DB1459"/>
				<stop  offset="0.8584" style="stop-color:#F5155D"/>
				<stop  offset="1" style="stop-color:#FF155F"/>
			</linearGradient>
			<path fill="url(#SVGID_6_)" d="M428.276,831.388l937.361,779.971c12.303,10.237,14.012,28.535,3.775,40.837
				c-10.299,12.375-28.598,14.017-40.897,3.779L391.151,876.003c-12.371-10.293-14.049-28.558-3.752-40.932
				C397.636,822.769,415.905,821.094,428.276,831.388z"/>
			
				<linearGradient id="SVGID_7_" gradientUnits="userSpaceOnUse" x1="1084.1191" y1="339.8608" x2="1084.1191" y2="1635.9419" gradientTransform="matrix(0.8761 -0.4821 -0.4821 -0.8761 595.502 2457.8574)">
				<stop  offset="0" style="stop-color:#3D0A42"/>
				<stop  offset="0" style="stop-color:#4E0B44"/>
				<stop  offset="0" style="stop-color:#7A0E4A"/>
				<stop  offset="0" style="stop-color:#A0114F"/>
				<stop  offset="0.2343" style="stop-color:#B91253"/>
				<stop  offset="0.4731" style="stop-color:#CE1357"/>
				<stop  offset="0.5816" style="stop-color:#DB1459"/>
				<stop  offset="0.8441" style="stop-color:#F5155D"/>
				<stop  offset="1" style="stop-color:#FF155F"/>
			</linearGradient>
			<path fill="url(#SVGID_7_)" d="M846.333,542.333l520.181,1070.194c7.739,14.066,2.629,31.684-11.474,39.446
				c-14.023,7.716-31.642,2.606-39.383-11.46L764.754,505.628c-7.761-14.104,25.58-15.961,39.58-10.628
				C819.378,500.731,838.573,528.229,846.333,542.333z"/>
			
				<linearGradient id="SVGID_8_" gradientUnits="userSpaceOnUse" x1="1343.0752" y1="409.4614" x2="1343.0752" y2="1570.8462" gradientTransform="matrix(0.6396 -0.7687 -0.7687 -0.6396 1114.7046 2507.6484)">
				<stop  offset="0" style="stop-color:#3D0A42"/>
				<stop  offset="0" style="stop-color:#4E0B44"/>
				<stop  offset="0" style="stop-color:#7A0E4A"/>
				<stop  offset="0" style="stop-color:#A0114F"/>
				<stop  offset="0.2396" style="stop-color:#B91253"/>
				<stop  offset="0.4839" style="stop-color:#CE1357"/>
				<stop  offset="0.5902" style="stop-color:#DB1459"/>
				<stop  offset="0.8473" style="stop-color:#F5155D"/>
				<stop  offset="1" style="stop-color:#FF155F"/>
			</linearGradient>
			<path fill="url(#SVGID_8_)" d="M807.178,466.778l848.088,705.688c12.34,10.267,14.014,28.536,3.717,40.911
				c-10.236,12.302-28.504,13.977-40.845,3.709L770.05,511.399c-12.374-10.297-14.049-28.565-3.812-40.869
				C776.535,458.156,794.804,456.482,807.178,466.778z"/>
			
				<linearGradient id="SVGID_9_" gradientUnits="userSpaceOnUse" x1="1517.2979" y1="641.728" x2="1517.2979" y2="1338.5806" gradientTransform="matrix(0.6396 -0.7687 -0.7687 -0.6396 1114.7046 2507.6484)">
				<stop  offset="0" style="stop-color:#3D0A42"/>
				<stop  offset="0" style="stop-color:#4E0B44"/>
				<stop  offset="0" style="stop-color:#7A0E4A"/>
				<stop  offset="0" style="stop-color:#A0114F"/>
				<stop  offset="0.2609" style="stop-color:#B91253"/>
				<stop  offset="0.5269" style="stop-color:#CE1357"/>
				<stop  offset="0.6243" style="stop-color:#DB1459"/>
				<stop  offset="0.86" style="stop-color:#F5155D"/>
				<stop  offset="1" style="stop-color:#FF155F"/>
			</linearGradient>
			<path fill="url(#SVGID_9_)" d="M1097.154,481.42l491.006,408.56c12.34,10.268,14.018,28.535,3.721,40.909
				c-10.236,12.304-28.506,13.976-40.847,3.708l-491.005-408.561c-12.303-10.238-14.048-28.566-3.812-40.869
				C1066.515,472.794,1084.853,471.182,1097.154,481.42z"/>
			
				<linearGradient id="SVGID_10_" gradientUnits="userSpaceOnUse" x1="1691.4746" y1="815.9106" x2="1691.4746" y2="1164.355" gradientTransform="matrix(0.6396 -0.7687 -0.7687 -0.6396 1114.7046 2507.6484)">
				<stop  offset="0" style="stop-color:#3D0A42"/>
				<stop  offset="0" style="stop-color:#4E0B44"/>
				<stop  offset="0" style="stop-color:#7A0E4A"/>
				<stop  offset="0" style="stop-color:#A0114F"/>
				<stop  offset="0.2316" style="stop-color:#B91253"/>
				<stop  offset="0.4677" style="stop-color:#CE1357"/>
				<stop  offset="0.5774" style="stop-color:#DB1459"/>
				<stop  offset="0.8425" style="stop-color:#F5155D"/>
				<stop  offset="1" style="stop-color:#FF155F"/>
			</linearGradient>
			<path fill="url(#SVGID_10_)" d="M1342.462,458.887l223.213,185.734c12.339,10.266,13.989,28.63,3.751,40.932
				c-10.239,12.306-28.598,14.021-40.936,3.755l-223.213-185.733c-12.319-10.251-13.936-28.588-3.697-40.895
				C1311.817,450.378,1330.143,448.636,1342.462,458.887z"/>
			
				<linearGradient id="SVGID_11_" gradientUnits="userSpaceOnUse" x1="868.0547" y1="1003.896" x2="1273.6777" y2="1003.896" gradientTransform="matrix(0.6396 -0.7687 -0.7687 -0.6396 1114.7046 2507.6484)">
				<stop  offset="0" style="stop-color:#067CBF"/>
				<stop  offset="0.4946" style="stop-color:#118DC3"/>
				<stop  offset="0.5436" style="stop-color:#0F92C6"/>
				<stop  offset="0.6781" style="stop-color:#0D9BCA"/>
				<stop  offset="0.9086" style="stop-color:#0C9DCB"/>
			</linearGradient>
			<polygon fill="url(#SVGID_11_)" points="1125.575,1036.507 1118.564,909.751 1053.914,831.48 921.97,690.332 927.184,896.38 
				950.985,1242.155 1140.348,1386.74 1139.605,1287.395 1136.038,1168.828 			"/>
			<g>
				
					<linearGradient id="SVGID_12_" gradientUnits="userSpaceOnUse" x1="1956.7666" y1="1019.1978" x2="1769.3857" y2="1019.1978" gradientTransform="matrix(0.6396 -0.7687 -0.7687 -0.6396 1114.7046 2507.6484)">
					<stop  offset="0.3495" style="stop-color:#CE1357"/>
					<stop  offset="0.4835" style="stop-color:#DB1459"/>
					<stop  offset="0.8075" style="stop-color:#F5155D"/>
					<stop  offset="1" style="stop-color:#FF155F"/>
				</linearGradient>
				<path fill="url(#SVGID_12_)" d="M1605.17,370.176l-101.259,121.691c-10.236,12.304-28.599,14.021-40.936,3.755
					c-12.303-10.236-13.952-28.605-3.714-40.909l98.403-118.262C1574.414,347.457,1589.404,357.058,1605.17,370.176z"/>
				
					<linearGradient id="SVGID_13_" gradientUnits="userSpaceOnUse" x1="2142.5801" y1="1019.1992" x2="2325.1738" y2="1019.1992" gradientTransform="matrix(0.6396 -0.7687 -0.7687 -0.6396 1114.7046 2507.6484)">
					<stop  offset="0" style="stop-color:#A0114F"/>
					<stop  offset="0.2449" style="stop-color:#B91253"/>
					<stop  offset="0.4946" style="stop-color:#CE1357"/>
					<stop  offset="0.5987" style="stop-color:#DB1459"/>
					<stop  offset="0.8505" style="stop-color:#F5155D"/>
					<stop  offset="1" style="stop-color:#FF155F"/>
				</linearGradient>
				<path fill="url(#SVGID_13_)" d="M1679.369,190.189l98.199-118.016c10.237-12.302,28.597-14.017,40.936-3.75
					c12.303,10.237,13.953,28.603,3.716,40.905l-96.317,115.752C1703.296,206.808,1695.286,199.605,1679.369,190.189z"/>
			</g>
			<g>
				
					<linearGradient id="SVGID_14_" gradientUnits="userSpaceOnUse" x1="-22.1973" y1="1019.1978" x2="-212.2441" y2="1019.1978" gradientTransform="matrix(0.6396 -0.7687 -0.7687 -0.6396 1114.7046 2507.6484)">
					<stop  offset="0" style="stop-color:#A0114F"/>
					<stop  offset="0.2476" style="stop-color:#B91253"/>
					<stop  offset="0.5" style="stop-color:#CE1357"/>
					<stop  offset="0.603" style="stop-color:#DB1459"/>
					<stop  offset="0.8521" style="stop-color:#F5155D"/>
					<stop  offset="1" style="stop-color:#FF155F"/>
				</linearGradient>
				<path fill="url(#SVGID_14_)" d="M337.678,1893.438l-101.258,121.69c-10.237,12.303-28.598,14.021-40.936,3.755
					c-12.303-10.236-13.952-28.606-3.715-40.909l102.965-123.741C307.768,1868.55,321.912,1880.319,337.678,1893.438z"/>
				
					<linearGradient id="SVGID_15_" gradientUnits="userSpaceOnUse" x1="164.0693" y1="1019.1997" x2="343.7744" y2="1019.1997" gradientTransform="matrix(0.6396 -0.7687 -0.7687 -0.6396 1114.7046 2507.6484)">
					<stop  offset="0.4462" style="stop-color:#CE1357"/>
					<stop  offset="0.5603" style="stop-color:#DB1459"/>
					<stop  offset="0.8362" style="stop-color:#F5155D"/>
					<stop  offset="1" style="stop-color:#FF155F"/>
				</linearGradient>
				<path fill="url(#SVGID_15_)" d="M416.762,1707.579l93.46-112.318c10.236-12.302,28.6-14.021,40.936-3.755
					c12.303,10.236,13.951,28.606,3.715,40.908l-96.317,115.752C435.952,1729.891,429.673,1721.975,416.762,1707.579z"/>
			</g>
		</g>
	</g>
	<circle fill="#630D47" cx="1711.28" cy="1255.468" r="31.421"/>
	<circle fill="#FF155F" cx="337.28" cy="803.468" r="31.421"/>
</g>
</svg>
